<svg width="48" height="56" viewBox="0 0 48 56" fill="none" xmlns="http://www.w3.org/2000/svg">
    <path d="M2.29359 8.61335L2.42723 8.3312L2.66854 8.06762L2.87643 7.93769L3.06947 7.87458L3.32192 7.85602L3.66346 7.90428L3.90847 7.99338L4.10523 8.16786L4.29827 8.39431L4.39108 8.53167L4.43192 8.63191L4.42285 9.00646L4.4245 10.3396L4.45419 10.6329L4.50617 10.8408L4.57299 11.0561L4.68436 11.3234L4.75861 11.4719L4.87741 11.7392L5.01105 11.9768L5.15955 12.2069L5.34517 12.4371L5.56791 12.697L5.72383 12.8974L6.0134 13.1573L6.36978 13.4543L6.80042 13.781L7.20878 14.0408L7.4835 14.2339L7.75822 14.4492L7.98838 14.6571L8.2631 14.9095L8.44872 15.1323L8.66404 15.3847L8.81253 15.5926L9.013 15.8822L9.18377 16.1421L9.32484 16.3871L9.42137 16.6172L9.51046 16.8177L9.59956 17.1073L9.71093 17.4191L9.77033 17.6641L9.83715 18.0502L9.90397 18.3472L9.97451 18.789L10.0079 19.253L10.0191 20.0401V20.5524L9.97822 20.8197L9.9411 21.1538L9.89655 21.4174L9.81488 21.6846L9.76291 21.8777L9.65525 22.0856L9.56615 22.2229L9.43251 22.3603L9.29515 22.4754L9.15037 22.5645L8.99444 22.6053L8.78284 22.609L8.58608 22.6053L8.39675 22.609L8.25197 22.5608L8.09976 22.4791L7.96983 22.3974L7.80648 22.2675L7.67655 22.1116L7.59488 21.952L7.53919 21.7997L7.54292 21.2169L7.58005 21.0313L7.65058 20.8271L7.68771 20.5969L7.73968 20.3631L7.79537 19.9324L7.75453 18.9227L7.72298 18.7018L7.66915 18.4902L7.58933 18.2489L7.4761 17.9704L7.40928 17.7421L7.28677 17.4748L7.15869 17.2614L7.04547 17.0627L6.85428 16.8419L6.67423 16.6321L6.47747 16.4316L6.33455 16.2906L6.11923 16.0827L5.8278 15.8618L5.53082 15.6539L5.4445 15.5889L5.32756 15.5008L5.16978 15.3773L5.03243 15.2687L4.84588 15.1073L4.68532 15.0135L4.56374 14.8966L4.43752 14.7648L4.31501 14.646L4.19807 14.5198L4.07834 14.4L3.96697 14.2933L3.85932 14.1819L3.73217 14.0548L3.65328 13.9703L3.57717 13.8664L3.47787 13.7689L3.40826 13.6548L3.33494 13.5406L3.26069 13.4422L3.21336 13.3244L3.12334 13.1954L3.04445 13.0627L2.98134 12.9272L2.91173 12.8046L2.85233 12.6849L2.79386 12.5652L2.73261 12.4473L2.67135 12.3202L2.61938 12.193L2.60267 12.0807L2.57576 11.9888L2.52472 11.8812L2.43835 11.5502L2.36222 11.2457L2.28872 10.9175L2.24409 10.6104L2.21784 10.3453L2.20996 9.91475V9.56562V9.31886L2.21258 9.09311L2.23358 8.86998L2.23883 8.76498L2.29359 8.61335Z" fill="#050517" fill-opacity="0.8" stroke="black" stroke-width="0.117602" />
    <path d="M8.58216 5.1174L8.71581 4.83526L8.95711 4.57168L9.16501 4.44175L9.35805 4.37864L9.61049 4.36008L9.95203 4.40834L10.197 4.49743L10.3938 4.67192L10.5868 4.89837L10.6797 5.03573L10.7205 5.13596L10.7114 5.51052L10.7131 6.84366L10.7428 7.13694L10.7947 7.34483L10.8616 7.56015L10.9729 7.82744L11.0472 7.97594L11.166 8.24323L11.2996 8.48082L11.4481 8.71099L11.6337 8.94116L11.8565 9.20102L12.0124 9.40149L12.302 9.66136L12.6584 9.95835L13.089 10.285L13.4974 10.5449L13.7721 10.7379L14.0468 10.9533L14.277 11.1612L14.5517 11.4136L14.7373 11.6363L14.9526 11.8888L15.1011 12.0967L15.3016 12.3862L15.4723 12.6461L15.6134 12.8911L15.7099 13.1213L15.799 13.3218L15.8881 13.6113L15.9995 13.9232L16.0589 14.1682L16.1257 14.5543L16.1925 14.8513L16.2631 15.293L16.2965 15.7571L16.3076 16.5441V17.0564L16.2668 17.3237L16.2297 17.6578L16.1851 17.9214L16.1035 18.1887L16.0515 18.3817L15.9438 18.5896L15.8547 18.727L15.7211 18.8644L15.5837 18.9794L15.4389 19.0685L15.283 19.1094L15.0714 19.1131L14.8747 19.1094L14.6853 19.1131L14.5405 19.0648L14.3883 18.9832L14.2584 18.9015L14.0951 18.7716L13.9651 18.6156L13.8834 18.456L13.8278 18.3038L13.8315 17.721L13.8686 17.5353L13.9392 17.3312L13.9763 17.101L14.0283 16.8671L14.0839 16.4365L14.0431 15.4267L14.0116 15.2058L13.9577 14.9942L13.8779 14.7529L13.7647 14.4745L13.6979 14.2462L13.5753 13.9789L13.4473 13.7654L13.334 13.5668L13.1429 13.3459L12.9628 13.1362L12.766 12.9357L12.6231 12.7946L12.4078 12.5867L12.1164 12.3658L11.8194 12.158L11.7331 12.093L11.6161 12.0048L11.4584 11.8814L11.321 11.7728L11.1345 11.6113L10.9739 11.5176L10.8523 11.4006L10.7261 11.2688L10.6036 11.15L10.4866 11.0238L10.3669 10.9041L10.2555 10.7974L10.1479 10.686L10.0207 10.5588L9.94185 10.4744L9.86575 10.3704L9.76644 10.273L9.69684 10.1588L9.62352 10.0447L9.54927 9.9463L9.50193 9.82844L9.41191 9.69943L9.33302 9.56671L9.26991 9.43121L9.2003 9.3087L9.14091 9.18898L9.08244 9.06925L9.02118 8.95139L8.95993 8.82423L8.90795 8.69709L8.89125 8.58479L8.86434 8.49291L8.81329 8.38525L8.72692 8.05421L8.65079 7.74971L8.57729 7.42158L8.53267 7.11445L8.50642 6.84932L8.49854 6.41881V6.06968V5.82292L8.50116 5.59717L8.52216 5.37404L8.5274 5.26904L8.58216 5.1174Z" fill="#050517" fill-opacity="0.8" stroke="black" stroke-width="0.117602" />
    <path d="M14.8822 1.75733L15.0158 1.47518L15.2571 1.21161L15.465 1.08167L15.6581 1.01856L15.9105 1L16.2521 1.04826L16.4971 1.13736L16.6938 1.31184L16.8869 1.5383L16.9797 1.67565L17.0205 1.77589L17.0115 2.15044L17.0131 3.48358L17.0428 3.77686L17.0948 3.98476L17.1616 4.20007L17.273 4.46736L17.3472 4.61586L17.466 4.88315L17.5997 5.12074L17.7481 5.35091L17.9338 5.58108L18.1565 5.84095L18.3124 6.04141L18.602 6.30128L18.9584 6.59827L19.389 6.92496L19.7974 7.18483L20.0721 7.37787L20.3468 7.59319L20.577 7.80108L20.8517 8.05353L21.0373 8.27627L21.2526 8.52871L21.4011 8.7366L21.6016 9.02617L21.7724 9.28604L21.9134 9.53105L22.01 9.76122L22.0991 9.96169L22.1882 10.2513L22.2995 10.5631L22.3589 10.8081L22.4257 11.1942L22.4926 11.4912L22.5631 11.933L22.5965 12.397L22.6077 13.184V13.6963L22.5668 13.9636L22.5297 14.2978L22.4852 14.5613L22.4035 14.8286L22.3515 15.0217L22.2439 15.2296L22.1548 15.3669L22.0211 15.5043L21.8838 15.6194L21.739 15.7085L21.5831 15.7493L21.3715 15.753L21.1747 15.7493L20.9854 15.753L20.8406 15.7048L20.6884 15.6231L20.5585 15.5414L20.3951 15.4115L20.2652 15.2556L20.1835 15.0959L20.1278 14.9437L20.1315 14.3609L20.1687 14.1753L20.2392 13.9711L20.2763 13.7409L20.3283 13.507L20.384 13.0764L20.3432 12.0666L20.3116 11.8457L20.2578 11.6341L20.178 11.3928L20.0647 11.1144L19.9979 10.8861L19.8754 10.6188L19.7473 10.4053L19.6341 10.2067L19.4429 9.98584L19.2629 9.77609L19.0661 9.57562L18.9232 9.43455L18.7079 9.22666L18.4164 9.00577L18.1194 8.79788L18.0331 8.73291L17.9162 8.64474L17.7584 8.52131L17.6211 8.41272L17.4345 8.25123L17.2739 8.15749L17.1524 8.04055L17.0261 7.90876L16.9036 7.78997L16.7867 7.66375L16.667 7.54402L16.5556 7.43729L16.4479 7.32592L16.3208 7.19877L16.2419 7.11431L16.1658 7.01037L16.0665 6.91292L15.9969 6.79876L15.9236 6.6846L15.8493 6.58623L15.802 6.46836L15.712 6.33935L15.6331 6.20664L15.57 6.07113L15.5004 5.94863L15.441 5.8289L15.3825 5.70918L15.3212 5.59131L15.26 5.46416L15.208 5.33701L15.1913 5.22471L15.1644 5.13283L15.1133 5.02517L15.027 4.69414L14.9508 4.38963L14.8773 4.0615L14.8327 3.75437L14.8065 3.48924L14.7986 3.05873V2.7096V2.46284L14.8012 2.23709L14.8222 2.01396L14.8275 1.90896L14.8822 1.75733Z" fill="#050517" fill-opacity="0.8" stroke="black" stroke-width="0.117602" />
    <path d="M10.5393 35.9867L15.7684 43.5101L15.8892 43.6991L15.8997 43.8356L15.9207 44.2924L15.8577 44.4972L15.7527 44.6284L15.6319 44.7492L15.4954 44.8384L15.3747 44.9172L15.2592 44.9644C15.2592 44.9644 15.1227 44.9854 15.0964 44.9854C15.0702 44.9854 14.9652 44.9854 14.9284 44.9854C14.8917 44.9854 14.7289 44.9854 14.6974 44.9697C14.6659 44.9539 14.5557 44.8909 14.5557 44.8909L14.3877 44.7964L14.2249 44.6652L9.06406 37.1943L8.93806 36.9003L8.93018 36.6798L8.94592 36.3569L9.0588 36.1679L9.1953 36.0497L9.30556 35.9316L9.44731 35.8187L9.62319 35.7452H9.76757L9.92507 35.74L10.1167 35.7505L10.2716 35.7899L10.4081 35.8686L10.5393 35.9867Z" fill="#050517" fill-opacity="0.8" stroke="black" stroke-width="0.117602" />
    <path d="M15.6109 31.2092L22.7081 41.7649L22.7823 41.9283L22.7712 42.151L22.7676 42.3998L22.6971 42.6188L22.582 42.8118L22.4372 42.9269L22.2961 43.042L22.1031 43.1274L21.8989 43.1163L21.6279 43.1014L21.42 43.0457L21.2381 42.9307L20.93 42.5965L14.1804 32.5243L14.0964 32.3721L14.0203 32.1857L14.0098 31.9416L14.0308 31.7289L14.0938 31.6003L14.1778 31.4481L14.3668 31.2223L14.5584 31.0806L14.7343 30.9887L14.9417 30.9782L15.1648 30.9913L15.3827 31.0596L15.5008 31.1068L15.6109 31.2092Z" fill="#050517" fill-opacity="0.8" stroke="black" stroke-width="0.117602" />
    <path d="M20.6982 25.4052L28.6206 37.5381L28.7282 37.7875L28.7676 37.9791L28.7781 38.2102L28.7466 38.3703L28.6888 38.5383L28.5969 38.6617L28.5077 38.7745L28.4027 38.8717L28.2741 38.9504L28.1113 39.016L27.9564 39.0371L27.7359 39.0344L27.5548 39.0187L27.3842 38.9399L27.2083 38.8402L27.0665 38.6984L26.8907 38.4464L19.2019 26.6494L19.1047 26.4709L19.0339 26.3134L19.0312 26.0614L19.0549 25.8409L19.1573 25.5784L19.3069 25.3973L19.5904 25.1925L19.8424 25.1321L20.1364 25.1111L20.4042 25.2004L20.5275 25.2686L20.6982 25.4052Z" fill="#050517" fill-opacity="0.8" stroke="black" stroke-width="0.117602" />
    <path d="M25.9324 21.4072L36.85 36.9842L36.9393 37.2179L36.9682 37.4515L36.9472 37.6799L36.8816 37.8978L36.8159 38.0343L36.6978 38.1865L36.5954 38.281L36.4799 38.3545L36.3802 38.4044L36.2594 38.4464L35.7633 38.4333L35.5979 38.3677L35.4588 38.2758L35.3249 38.1524L24.5038 22.7065L24.4323 22.5775L24.3804 22.4977L24.3878 21.9798L24.4342 21.848L24.4862 21.7181L24.6124 21.5584L24.7349 21.4285L24.8741 21.3245L25.0078 21.2781L25.1173 21.2466L25.3289 21.228L25.5498 21.2373L25.7038 21.2577L25.9324 21.4072Z" fill="#050517" fill-opacity="0.8" stroke="black" stroke-width="0.117602" />
    <path d="M33.3809 19.706L43.746 33.6058L43.851 33.8998V34.2332L43.7853 34.4747L43.6515 34.7241L43.4782 34.8921L43.2472 35.005L43.1028 35.0601H42.7537L42.4571 34.9551L42.0659 34.5928L31.9595 20.9662L31.8755 20.8323L31.8912 20.1971L31.9726 20.0527L32.0645 19.9057L32.1905 19.7587L32.3559 19.6537L32.4792 19.5854L32.6472 19.5329H32.8389L33.0331 19.5487L33.2274 19.5959L33.3809 19.706Z" fill="#050517" fill-opacity="0.8" stroke="black" stroke-width="0.117602" />
    <path d="M8.5261 55.8169C5.94294 55.4613 4.11895 54.6579 2.60178 53.2075C1.46917 52.1247 0.938099 51.2858 0.322042 49.6061L0.00016647 48.7285L5.34181e-05 44.2344C-6.41842e-05 39.0595 -0.019788 39.2186 0.837681 37.4723C1.35909 36.4104 1.95893 35.5836 2.92954 34.5888C4.0455 33.4451 5.03786 32.7201 6.96039 31.644C9.02439 30.4887 11.1243 28.989 12.4888 27.6959C13.1875 27.0337 14.0417 25.9716 14.6249 25.0401C15.1022 24.2775 16.5914 22.4145 17.2771 21.722C18.0302 20.9615 19.1594 20.0045 20.0822 19.3445C20.6583 18.9325 22.5531 17.9931 23.2264 17.7857C26.5565 16.76 27.6411 16.5239 29.8702 16.3397C34.1176 15.9887 39.3331 17.5318 42.4482 20.061C42.8027 20.3489 43.4848 20.9632 43.964 21.4262C46.2462 23.6313 47.3701 25.6581 47.8423 28.4202C47.9937 29.3059 48.0062 29.7766 47.9982 34.3096C47.9934 37.0193 47.965 39.8988 47.9352 40.7084C47.8821 42.1472 47.8747 42.193 47.6096 42.7313C46.6464 44.6866 43.3856 46.7661 39.5299 47.8838C37.0821 48.5933 35.7351 48.8075 32.8866 48.9399C30.8532 49.0345 29.7706 49.1895 29.2342 49.463C29.0485 49.5577 28.6058 49.8564 28.2505 50.1268C26.5298 51.4364 22.9686 53.5349 21.2238 54.2675C19.4335 55.0192 17.0561 55.6663 15.3439 55.8679C13.7857 56.0514 10.0251 56.0232 8.5261 55.8169ZM15.3302 54.0529C18.6316 53.5995 21.1101 52.6198 24.8476 50.2909C25.4851 49.8936 26.4491 49.2371 26.9896 48.832C28.2053 47.9209 28.947 47.5408 29.8235 47.3799C30.1915 47.3123 31.5887 47.2024 32.9286 47.1357C35.7844 46.9934 36.8582 46.8267 38.9767 46.1969C39.9884 45.8962 41.6251 45.2835 42.2528 44.9706C43.172 44.5124 44.661 43.5174 45.202 42.9998C46.1835 42.0608 46.1576 42.1625 46.2077 39.0447C46.249 36.4658 46.2456 36.387 46.0996 36.5891C44.6551 38.5894 43.1856 39.8331 41.0818 40.8359C38.6048 42.0166 36.6669 42.4128 32.6766 42.5546C29.5644 42.6652 29.3522 42.7309 27.3845 44.193C25.0268 45.9449 22.6774 47.3484 20.8743 48.0821C19.0342 48.8309 18.9468 48.8595 17.5983 49.1538C15.8408 49.5375 14.302 49.6874 11.9688 49.7024C9.80243 49.7162 9.52308 49.6987 8.3161 49.4736C6.22481 49.0835 4.46431 48.1208 2.74781 46.4286L1.80597 45.5001V47.0361C1.80597 48.7173 1.8681 49.0677 2.32933 49.9885C3.29534 51.917 4.98187 53.2077 7.3111 53.8011C7.95774 53.9658 10.0169 54.2028 11.2562 54.2552C12.4025 54.3036 14.1284 54.2179 15.3302 54.0529ZM14.7842 47.8079C17.3804 47.4961 19.157 46.9778 21.217 45.9311C23.1136 44.9676 24.359 44.2135 25.6842 43.2264C26.2735 42.7875 26.9538 42.2821 27.196 42.1034C27.4383 41.9246 27.92 41.645 28.2665 41.4821C29.3483 40.9732 29.9185 40.8732 32.2146 40.7896C35.5298 40.6688 36.5342 40.5425 38.2627 40.029C39.3389 39.7093 41.1417 38.8587 41.9981 38.2667C42.6524 37.8144 43.8927 36.5816 44.4682 35.8117C44.888 35.2499 45.4939 34.0403 45.7634 33.2258C46.101 32.2053 46.1825 31.4737 46.1386 29.8601C46.0962 28.3054 45.9663 27.665 45.4391 26.4126C44.6928 24.6393 42.6435 22.3325 40.5307 20.8874C37.0987 18.5401 32.3024 17.5853 27.8885 18.371C27.4025 18.4575 27.049 18.5481 25.0201 19.1067C21.5114 20.0726 18.6098 22.3046 16.2102 25.8836C15.7752 26.5323 15.1195 27.4252 14.7529 27.8677C13.2786 29.6479 10.42 31.8298 7.47464 33.4231C5.00055 34.7614 3.34659 36.3538 2.39631 38.3123C1.86982 39.3974 1.78361 39.8244 1.81911 41.1708C1.84639 42.2051 1.86282 42.2953 2.11851 42.8141C2.6214 43.8344 4.25295 45.5778 5.43815 46.3613C6.67353 47.178 7.60022 47.5572 8.96584 47.8047C9.8315 47.9616 13.4879 47.9637 14.7842 47.808V47.8079Z" fill="#050517" fill-opacity="0.8" />
</svg>