
<svg width="32" height="44" viewBox="0 0 32 44" fill="none" xmlns="http://www.w3.org/2000/svg">
    <path d="M16.2634 35.6395H14.1383C12.6416 35.6395 11.4253 36.8558 11.4253 38.3525V41.287C11.4253 42.7837 12.6416 44 14.1383 44H16.2634C17.7602 44 18.9764 42.7837 18.9764 41.287V38.3525C18.9764 36.8513 17.7602 35.6395 16.2634 35.6395Z" fill="black" fill-opacity="0.8" />
    <path d="M1.27873 12.9228L5.19899 13.4112C6.44244 13.5649 7.62259 12.8505 8.07023 11.6794C8.63543 10.2008 9.4222 9.03423 10.4305 8.18416C11.8594 6.98141 13.6364 6.37551 15.7615 6.37551C17.9636 6.37551 19.718 6.95428 21.0202 8.1073C22.3224 9.26483 22.969 10.6485 22.969 12.2717C22.969 13.4383 22.6028 14.5054 21.8703 15.473C21.3955 16.088 19.935 17.3812 17.4978 19.3571C15.0562 21.3331 13.4329 23.1146 12.619 24.6971C11.7871 26.3159 11.4977 28.111 11.4253 29.9106C11.3621 31.4525 12.5919 32.7366 14.1383 32.7366H16.3539C17.7647 32.7366 18.9312 31.656 19.0579 30.2543C19.1483 29.246 19.3156 28.4818 19.5688 27.9618C19.9938 27.071 21.0926 25.8954 22.856 24.4304C26.2698 21.6044 28.4945 19.3707 29.539 17.7248C30.579 16.0835 31.1035 14.3426 31.1035 12.5023C31.1035 9.17892 29.6882 6.26247 26.8532 3.75748C24.0226 1.25249 20.2063 0 15.4134 0C10.8556 0 7.17951 1.23441 4.3761 3.70774C1.98867 5.81482 0.537228 8.31077 0.026283 11.1911C-0.132019 12.0321 0.442229 12.8188 1.27873 12.9228Z" fill="black" fill-opacity="0.8" />
</svg>