
<svg width="45" height="47" viewBox="0 0 45 47" fill="none" xmlns="http://www.w3.org/2000/svg">
    <path d="M20.3478 8.43483H42.6993C43.3064 8.43932 43.8894 8.1977 44.3152 7.76505C44.8045 7.28747 45.0526 6.61481 44.9907 5.93388C44.8572 4.72614 43.8282 3.81734 42.6133 3.83423L20.3448 3.87431C20.032 2.93478 19.1531 2.30094 18.1629 2.30067H11.7696L11.2283 0.541745C11.1038 0.136856 10.6747 -0.0903882 10.2698 0.0340617C9.86489 0.158512 9.63764 0.587661 9.76209 0.99255L10.1647 2.30067H8.70243L8.16114 0.541745C8.03669 0.136856 7.60754 -0.0903882 7.20265 0.0340617C6.79776 0.158512 6.57051 0.587661 6.69496 0.99255L7.09752 2.30067H5.89453C5.47104 2.30067 5.12779 2.644 5.12779 3.0674C5.12779 3.4908 5.47104 3.83414 5.89453 3.83414H7.56935L8.04127 5.3677H5.89453C5.47104 5.3677 5.12779 5.71095 5.12779 6.13444C5.12779 6.55793 5.47104 6.90118 5.89453 6.90118H8.51301L8.98484 8.43474H5.89453C5.47104 8.43474 5.12779 8.77799 5.12779 9.20148C5.12779 9.62497 5.47104 9.96822 5.89453 9.96822H9.45676L9.762 10.9604C9.84251 11.2223 10.0566 11.4214 10.3237 11.4826C10.5907 11.5437 10.8702 11.4578 11.0567 11.2572C11.2433 11.0565 11.3086 10.7715 11.2281 10.5096L11.0615 9.96822H12.5392C12.8761 11.0333 13.3275 12.0586 13.8856 13.0263C14.5393 14.1371 16.3154 16.8059 18.6868 17.5965C19.4553 17.8327 20.0608 18.4281 20.31 19.1926C20.1072 19.181 19.9044 19.1694 19.6962 19.1694C16.5992 19.1053 13.6055 20.2834 11.383 22.4412C5.94728 23.4873 3.67878 28.2579 3.04961 29.9042H2.30031C1.49449 29.904 0.747337 30.3257 0.330857 31.0156C-0.0855337 31.7055 -0.110513 32.5631 0.265083 33.276L4.37822 41.0905C5.96507 44.1173 9.10237 46.0115 12.5198 46.0063H31.4733C34.8908 46.0114 38.0281 44.1172 39.615 41.0905L43.7281 33.276C44.1036 32.5634 44.0788 31.7062 43.6629 31.0165C43.2469 30.3268 42.5003 29.9049 41.6949 29.9045C40.8808 27.8766 37.5396 20.703 31.006 20.703C29.4861 20.6914 27.984 21.0296 26.6158 21.6917C25.2544 20.5843 23.6564 19.8049 21.9456 19.414C21.7146 17.8864 20.6412 16.6199 19.172 16.1417C17.2394 15.4977 15.649 12.9994 15.2079 12.2491C14.7935 11.522 14.4464 10.7586 14.171 9.96831H18.1626C19.1413 9.96795 20.0148 9.35486 20.3478 8.43483ZM13.5884 23.7702C19.1948 23.7702 22.0472 27.9168 23.0947 29.9044H21.3272C19.7449 27.1081 16.8008 25.3579 13.5884 25.3038C10.4923 25.2959 7.67574 27.0931 6.37849 29.9044H4.69487C5.52972 27.9553 7.97172 23.7702 13.5884 23.7702ZM19.3738 23.783C19.4817 23.7794 19.5867 23.7702 19.6963 23.7702C23.4695 23.7702 26.0815 27.4752 27.39 29.9044H24.7978C23.6204 27.3819 21.7362 25.2554 19.3738 23.783ZM19.4608 29.9043H8.1358C9.26555 27.9718 11.3502 26.7991 13.5884 26.8372C15.924 26.8607 18.1072 28.0009 19.4608 29.9043ZM42.349 31.8081C42.4904 32.0374 42.499 32.3245 42.3715 32.5618L38.2583 40.3762C36.9359 42.8985 34.3215 44.4771 31.4735 44.4729H12.5199C9.67197 44.4772 7.05753 42.8986 5.73513 40.3762L1.6219 32.5618C1.49691 32.3241 1.50536 32.0383 1.64409 31.8085C1.78283 31.5786 2.03173 31.438 2.30031 31.4378H37.8264L37.8397 31.4397L37.848 31.4378H41.693C41.9621 31.4351 42.2121 31.5763 42.349 31.8081ZM32.4885 29.9043C31.8279 28.3123 30.9981 26.7959 30.0134 25.3813C30.3418 25.3293 30.6737 25.3033 31.0062 25.3037C33.5874 25.3037 35.5317 27.9954 36.5864 29.9043H32.4885ZM31.0062 22.2366C36.0291 22.2366 38.988 27.6123 40.0213 29.9043H38.3194C37.0898 27.4264 34.6566 23.7701 31.0062 23.7701C30.326 23.7677 29.6486 23.8589 28.9932 24.0411C28.6419 23.6185 28.2626 23.2033 27.8583 22.802C28.8632 22.4192 29.9308 22.2274 31.0062 22.2366ZM30.8108 29.9043H29.1161C27.8237 27.2846 24.6843 22.2366 19.6963 22.2366C18.7068 22.232 17.7226 22.38 16.7781 22.6752C15.8948 22.4262 14.9849 22.2839 14.0678 22.2513C15.7551 21.2025 17.71 20.6648 19.6963 20.7032C25.9905 20.7031 29.6273 27.3134 30.8108 29.9043ZM9.64609 5.36779L9.17426 3.83423H10.6367L11.1086 5.36779H9.64609ZM10.5898 8.43483L10.1179 6.90127H11.5805L12.0524 8.43483H10.5898ZM14.329 8.43483H13.6571L13.1852 6.90127H14.329C14.5358 6.90073 14.7336 6.98564 14.8756 7.13597C15.0181 7.27614 15.0975 7.46817 15.0957 7.668C15.0954 8.09131 14.7523 8.43438 14.329 8.43483ZM14.329 5.36779H12.7133L12.2414 3.83423H14.3289C14.5358 3.83369 14.7335 3.9186 14.8755 4.06893C15.018 4.20911 15.0974 4.40113 15.0956 4.60097C15.0954 5.02428 14.7523 5.36734 14.329 5.36779ZM16.0415 6.13561C16.4205 5.71437 16.6298 5.1676 16.6293 4.60097C16.6297 4.33994 16.5858 4.0807 16.4997 3.83423H18.1628C18.4935 3.83495 18.7868 4.04728 18.8906 4.36141C19.1092 4.9754 19.6961 5.38073 20.3478 5.36779H42.6133C43.0313 5.3527 43.3954 5.65066 43.4631 6.06346V6.06426C43.4851 6.29438 43.3998 6.52172 43.2317 6.68049C43.0917 6.82345 42.8995 6.90315 42.6993 6.90136H20.3478C19.6961 6.88842 19.109 7.29394 18.8906 7.9081C18.7866 8.22196 18.4934 8.4342 18.1628 8.43483H16.4982C16.5851 8.18854 16.6294 7.92921 16.6292 7.66809C16.6333 7.10147 16.4233 6.55425 16.0415 6.13561Z" fill="black" fill-opacity="0.8" />
</svg>