
<svg width="59" height="41" viewBox="0 0 59 41" fill="none" xmlns="http://www.w3.org/2000/svg">
    <path d="M37.6373 16.4888C38.1135 16.4888 38.4996 16.1028 38.4996 15.6265C38.4996 15.1503 38.1135 14.7643 37.6373 14.7643C36.7692 14.7643 36.0628 14.0579 36.0628 13.1898C36.0628 12.3215 36.7692 11.6152 37.6373 11.6152C38.1135 11.6152 38.4996 11.2292 38.4996 10.7529C38.4996 10.2767 38.1135 9.89062 37.6373 9.89062C35.8182 9.89062 34.3381 11.3706 34.3381 13.1899C34.3381 14.1541 34.754 15.0229 35.4157 15.6267C34.754 16.2304 34.3381 17.0992 34.3381 18.0634C34.3381 19.0276 34.754 19.8965 35.4157 20.5003C34.754 21.104 34.3381 21.9728 34.3381 22.9372C34.3381 23.9013 34.754 24.7703 35.4157 25.374C34.754 25.9774 34.3381 26.8462 34.3381 27.8104C34.3381 29.6296 35.818 31.1097 37.6373 31.1097C38.1135 31.1097 38.4996 30.7237 38.4996 30.2474C38.4996 29.7712 38.1135 29.3851 37.6373 29.3851C36.7692 29.3851 36.0628 28.6788 36.0628 27.8106C36.0628 26.9424 36.7692 26.2361 37.6373 26.2361C38.1135 26.2361 38.4996 25.85 38.4996 25.3738C38.4996 24.8975 38.1135 24.5115 37.6373 24.5115C36.7692 24.5115 36.0628 23.8052 36.0628 22.9369C36.0628 22.0688 36.7692 21.3625 37.6373 21.3625C38.1135 21.3625 38.4996 20.9764 38.4996 20.5002C38.4996 20.0239 38.1135 19.6379 37.6373 19.6379C36.7692 19.6379 36.0628 18.9315 36.0628 18.0633C36.0628 17.1952 36.7692 16.4888 37.6373 16.4888Z" fill="black" fill-opacity="0.8" />
    <path d="M30.7122 18.9255C31.1885 18.9255 31.5745 18.5394 31.5745 18.0632C31.5745 17.5869 31.1885 17.2009 30.7122 17.2009C29.844 17.2009 29.1377 16.4946 29.1377 15.6264C29.1377 14.7583 29.844 14.052 30.7122 14.052C31.1885 14.052 31.5745 13.6659 31.5745 13.1897C31.5745 12.7134 31.1885 12.3274 30.7122 12.3274C28.8931 12.3274 27.4131 13.8073 27.4131 15.6265C27.4131 16.5907 27.829 17.4596 28.4907 18.0634C27.829 18.6672 27.4131 19.5361 27.4131 20.5003C27.4131 21.4645 27.829 22.3333 28.4907 22.9372C27.829 23.5404 27.4131 24.4094 27.4131 25.3736C27.4131 27.1927 28.8931 28.6727 30.7122 28.6727C31.1885 28.6727 31.5745 28.2867 31.5745 27.8104C31.5745 27.3342 31.1885 26.9482 30.7122 26.9482C29.844 26.9482 29.1377 26.2418 29.1377 25.3737C29.1377 24.5054 29.844 23.7991 30.7122 23.7991C31.1885 23.7991 31.5745 23.4131 31.5745 22.9368C31.5745 22.4606 31.1885 22.0745 30.7122 22.0745C29.844 22.0745 29.1377 21.3682 29.1377 20.5001C29.1377 19.6318 29.844 18.9255 30.7122 18.9255Z" fill="black" fill-opacity="0.8" />
    <path d="M23.7872 21.3624C24.2634 21.3624 24.6495 20.9763 24.6495 20.5001C24.6495 20.0238 24.2634 19.6378 23.7872 19.6378C22.9189 19.6378 22.2126 18.9315 22.2126 18.0632C22.2126 17.1951 22.9189 16.4887 23.7872 16.4887C24.2634 16.4887 24.6495 16.1027 24.6495 15.6264C24.6495 15.1502 24.2634 14.7642 23.7872 14.7642C21.9681 14.7642 20.488 16.2441 20.488 18.0633C20.488 19.0275 20.9039 19.8965 21.5656 20.5002C20.9039 21.1036 20.488 21.9724 20.488 22.9367C20.488 24.7558 21.9681 26.236 23.7872 26.236C24.2634 26.236 24.6495 25.8499 24.6495 25.3737C24.6495 24.8975 24.2634 24.5114 23.7872 24.5114C22.9189 24.5114 22.2126 23.8051 22.2126 22.9368C22.2126 22.0687 22.9189 21.3624 23.7872 21.3624Z" fill="black" fill-opacity="0.8" />
    <path d="M58.7182 22.444C58.7086 22.4066 58.697 22.3697 58.6837 22.3336C58.5903 22.0808 58.4092 21.864 58.1747 21.7283C58.0798 21.6735 57.9896 21.6206 57.9039 21.5696C57.3039 21.2134 56.9231 20.9536 56.6864 20.7767C56.8792 20.4206 57.27 19.8847 58.0329 19.373C58.0837 19.3389 58.1363 19.3048 58.1904 19.2711C58.1904 19.2711 58.1906 19.2711 58.1906 19.2709C58.1906 19.2709 58.1907 19.2708 58.1908 19.2708C58.1984 19.2661 58.2051 19.2605 58.2126 19.2556C58.2378 19.239 58.263 19.2223 58.2864 19.2041C58.2938 19.1984 58.3004 19.1919 58.3076 19.1859C58.3301 19.1675 58.3526 19.1492 58.3735 19.1294C58.3785 19.1246 58.3828 19.1193 58.3877 19.1145C58.7069 18.8004 58.8191 18.3227 58.6697 17.9C58.6444 17.8286 58.6117 17.7587 58.5712 17.6914C58.5193 17.6052 58.4651 17.5169 58.4096 17.4275C58.3991 17.4105 58.3885 17.3935 58.3778 17.3764C57.0896 15.3093 54.8868 12.4712 51.4719 10.0995C48.3943 7.96229 44.8937 6.58314 41.0231 5.97768C37.7681 3.02922 32.1038 -0.31538 23.3427 0.0238421C22.6055 0.0524167 21.9403 0.415623 21.5178 1.02039C21.0957 1.62471 20.9837 2.37338 21.2104 3.07455L23.2364 9.34133C20.8733 10.6064 18.7464 12.0379 16.9727 13.3729C16.5922 13.6592 16.5159 14.1998 16.8023 14.5803C17.0887 14.961 17.6294 15.0372 18.0099 14.7508C21.511 12.1157 26.433 9.08611 31.7582 7.88173C31.7725 7.87852 31.7869 7.87519 31.8012 7.87209C31.9926 7.82917 32.1846 7.78889 32.3769 7.75079C32.417 7.74288 32.4569 7.73542 32.4969 7.72773C32.67 7.69445 32.8435 7.66278 33.0174 7.63351C33.0787 7.6233 33.1397 7.61412 33.2009 7.60448C33.3569 7.57969 33.5129 7.55548 33.6695 7.53402C33.7524 7.52277 33.8348 7.51336 33.9174 7.50315C34.0545 7.48605 34.1915 7.46861 34.3288 7.45438C34.4378 7.44302 34.5459 7.43464 34.6543 7.42511C34.7671 7.41513 34.8798 7.404 34.9927 7.39597C35.144 7.38529 35.2943 7.37841 35.4446 7.37141C35.5162 7.36796 35.5876 7.36269 35.6592 7.36016C35.8843 7.35213 36.1082 7.34788 36.331 7.34788C36.5093 7.34788 36.6875 7.34949 36.8651 7.35259C36.8664 7.35259 36.8676 7.3527 36.8689 7.3527C38.1122 7.37474 39.3354 7.47331 40.5124 7.6466C40.5133 7.64671 40.5141 7.6466 40.5151 7.64671C41.4461 7.78384 42.3541 7.96803 43.2379 8.19938C41.5131 11.528 40.537 15.938 40.537 20.5001C40.537 21.4603 40.5796 22.4249 40.6633 23.3672C40.7057 23.8415 41.124 24.1918 41.5987 24.1497C42.073 24.1075 42.4234 23.6887 42.3813 23.2143C42.3018 22.3228 42.2617 21.4097 42.2617 20.5002C42.2617 16.07 43.2253 11.8193 44.9205 8.7073C50.9256 10.7654 54.5334 14.7584 56.4247 17.5381C56.4473 17.5715 56.4699 17.6048 56.4922 17.6377C56.5355 17.7023 56.5783 17.7664 56.62 17.8295C56.6701 17.9059 56.7191 17.9814 56.7669 18.0559C56.7813 18.0785 56.7968 18.102 56.8112 18.1244C56.7374 18.1788 56.6664 18.2334 56.5978 18.2883C55.5702 19.1103 55.1253 19.9664 54.9424 20.4498C54.8714 20.6369 54.8471 20.834 54.8656 21.026C54.8904 21.2853 54.9934 21.5348 55.1645 21.7367C55.2046 21.7841 55.2482 21.829 55.2956 21.8706C55.4 21.9621 55.5235 22.0603 55.6619 22.1636C55.9659 22.3906 56.3491 22.645 56.8123 22.9262C56.7981 22.9486 56.7826 22.972 56.7681 22.9947C56.7203 23.0694 56.6713 23.1451 56.6209 23.2217C56.5796 23.2845 56.5371 23.3482 56.494 23.4123C56.4713 23.4462 56.4481 23.4804 56.4248 23.5145C54.5318 26.2975 50.932 30.2782 44.9452 32.3372C44.1202 30.8326 43.4499 29.0267 42.9928 27.0689C42.8846 26.6052 42.4208 26.3167 41.957 26.4252C41.4933 26.5335 41.2051 26.9972 41.3133 27.4611C41.7738 29.4338 42.4414 31.2729 43.2629 32.847C42.352 33.0863 41.4155 33.2758 40.4544 33.415C40.4523 33.4152 40.4503 33.4151 40.4483 33.4153C39.2955 33.5822 38.0989 33.6775 36.8836 33.6997C36.8738 33.6998 36.8643 33.7003 36.8545 33.7004C36.6805 33.7034 36.506 33.705 36.3312 33.705C36.1262 33.705 35.92 33.7005 35.713 33.6936C35.6736 33.6924 35.634 33.6911 35.5944 33.6895C35.3836 33.6812 35.172 33.6702 34.9592 33.6548C34.9559 33.6546 34.9524 33.6543 34.9491 33.654C31.7111 33.4188 28.2565 32.3667 24.658 30.5173C24.6492 30.5127 24.6398 30.5093 24.6308 30.5051C23.5546 29.95 22.4652 29.3244 21.3635 28.6262C17.0094 25.8674 13.6079 22.7008 11.9601 21.0504C11.9599 21.0501 11.9597 21.0498 11.9594 21.0496C11.9567 21.0468 11.9536 21.0437 11.9508 21.041C11.9507 21.0408 11.9506 21.0407 11.9505 21.0406C11.9495 21.0396 11.9484 21.0385 11.9474 21.0375C11.6661 20.7557 11.6662 20.2971 11.9505 20.0122C11.9534 20.0093 11.9566 20.0061 11.9596 20.0031C11.9597 20.003 11.9598 20.0029 11.9599 20.0027C12.593 19.3685 13.6162 18.3808 14.9167 17.2533C15.2766 16.9414 15.3154 16.3967 15.0035 16.0368C14.6916 15.677 14.1471 15.6382 13.7871 15.9502C12.7715 16.8306 11.9192 17.6293 11.2816 18.2494C9.8891 17.1833 8.04839 15.8702 6.28572 14.909C3.46579 13.3714 1.57654 13.1507 0.510102 14.2346C-0.485762 15.2466 0.182929 17.1304 0.772552 18.4593C1.14264 19.2934 1.56495 20.062 1.83302 20.5265C1.56495 20.9911 1.14264 21.7596 0.772552 22.5936C0.182929 23.9223 -0.485647 25.8059 0.510102 26.8182C0.952262 27.2677 1.5358 27.4928 2.26864 27.4927C3.30318 27.4927 4.63505 27.0439 6.28572 26.1437C8.04828 25.1827 9.8891 23.8696 11.2816 22.8034C13.1248 24.5966 16.3795 27.5098 20.4405 30.083C21.3742 30.6747 22.3008 31.2166 23.2199 31.7107L21.2106 37.9255C20.9839 38.6267 21.096 39.3754 21.518 39.9797C21.9406 40.5846 22.6056 40.9478 23.3429 40.9762C23.7572 40.9923 24.1636 41.0001 24.5641 41C32.5889 40.9998 37.8596 37.8645 40.9548 35.0848C44.8643 34.4832 48.3974 33.0946 51.4996 30.9338C54.9133 28.556 57.1123 25.7141 58.3975 23.6449C58.408 23.6279 58.4186 23.6109 58.429 23.5941C58.4843 23.5046 58.5385 23.4161 58.5903 23.3297C58.7509 23.0615 58.7965 22.747 58.7182 22.444ZM37.1651 5.63467C37.1238 5.63352 37.0826 5.63249 37.0414 5.63157C36.8058 5.62641 36.5694 5.62297 36.3314 5.62297C36.2672 5.62297 36.2033 5.62572 36.1393 5.62629C35.9727 5.6279 35.8064 5.62928 35.6388 5.63501C35.5739 5.63719 35.5092 5.6419 35.4444 5.64477C35.2749 5.65211 35.1053 5.65946 34.9348 5.67093C34.9161 5.6722 34.8974 5.67426 34.8786 5.67564C31.6721 5.90045 28.2895 6.86097 24.7911 8.54308L22.8515 2.5438C22.7924 2.36099 22.8217 2.16567 22.9318 2.00788C23.0425 1.84952 23.2166 1.7545 23.4095 1.74692C23.8 1.73189 24.1828 1.72443 24.5601 1.72443C30.5611 1.72443 34.8974 3.58729 37.863 5.65957C37.6316 5.64856 37.3987 5.64064 37.1651 5.63467ZM1.75166 25.6203C1.72825 25.5518 1.58056 24.9715 2.41943 23.136C2.94146 21.9937 3.56207 20.9914 3.56815 20.9816C3.74167 20.7028 3.74167 20.3495 3.56815 20.0706C3.56207 20.0607 2.94881 19.0715 2.42597 17.9303C1.58021 16.0844 1.72825 15.5007 1.75178 15.4317C2.07941 15.1306 3.23869 15.2114 5.46004 16.4227C7.11461 17.3249 8.86202 18.5699 10.1973 19.5908C10.1964 19.5931 10.1958 19.5955 10.1948 19.5978C10.1768 19.6418 10.1626 19.6869 10.1473 19.7318C10.1369 19.7624 10.1246 19.7926 10.1153 19.8236C10.1015 19.87 10.0915 19.9171 10.0805 19.9642C10.0734 19.9945 10.0643 20.0244 10.0585 20.055C10.0487 20.1052 10.043 20.1559 10.0363 20.2066C10.0327 20.2343 10.027 20.262 10.0244 20.2899C10.018 20.357 10.0156 20.4244 10.0146 20.4917C10.0142 20.5209 10.0149 20.55 10.0156 20.5792C10.0168 20.6402 10.0185 20.7013 10.0244 20.7622C10.0276 20.7951 10.034 20.8276 10.0385 20.8604C10.0447 20.906 10.0496 20.9517 10.0585 20.9969C10.0653 21.0319 10.0755 21.0662 10.0837 21.1009C10.0939 21.1433 10.1027 21.186 10.1152 21.228C10.1256 21.2631 10.1394 21.2974 10.1514 21.3322C10.1656 21.3728 10.1783 21.4138 10.1946 21.4537C10.1956 21.4564 10.1963 21.4591 10.1975 21.4617C5.00308 25.4374 2.31707 26.144 1.75166 25.6203ZM23.4095 39.2528C23.2166 39.2452 23.0425 39.1502 22.9318 38.9919C22.8217 38.8341 22.7924 38.6388 22.8515 38.4559L24.7758 32.5039C28.0455 34.0799 31.2107 35.0232 34.2393 35.3232C34.2528 35.3246 34.2661 35.3259 34.2795 35.3272C34.7141 35.3694 35.1458 35.3985 35.5747 35.4142C35.6218 35.4159 35.6689 35.4175 35.7158 35.419C35.9216 35.4252 36.127 35.4293 36.3314 35.4293C36.5558 35.4293 36.7789 35.4262 37.0014 35.4216C37.0479 35.4206 37.0942 35.4194 37.1405 35.4182C37.3462 35.413 37.551 35.4062 37.7548 35.3971C37.7641 35.3966 37.7735 35.3965 37.7829 35.3962C34.6386 37.5701 29.9613 39.5061 23.4095 39.2528Z" fill="black" fill-opacity="0.8" />
    <path d="M47.3267 11.6309C45.7636 11.6309 44.4917 12.9026 44.4917 14.4658C44.4917 16.029 45.7636 17.3008 47.3267 17.3008C48.8899 17.3008 50.1617 16.029 50.1617 14.4658C50.1617 12.9027 48.89 11.6309 47.3267 11.6309ZM47.3267 15.5761C46.7144 15.5761 46.2164 15.0781 46.2164 14.4658C46.2164 13.8536 46.7144 13.3555 47.3267 13.3555C47.9389 13.3555 48.4371 13.8536 48.4371 14.4658C48.4371 15.0781 47.9389 15.5761 47.3267 15.5761Z" fill="black" fill-opacity="0.8" />
</svg>