
<svg width="50" height="50" viewBox="0 0 50 50" fill="none" xmlns="http://www.w3.org/2000/svg">
    <path d="M26.4112 39.0751C26.4112 37.0705 24.7801 35.4393 22.7754 35.4393C20.7704 35.4393 19.1396 37.0705 19.1396 39.0751C19.1396 41.0797 20.7708 42.7105 22.7754 42.7105C24.7801 42.7105 26.4112 41.0797 26.4112 39.0751ZM20.6045 39.0751C20.6045 37.878 21.5784 36.9041 22.7754 36.9041C23.9725 36.9041 24.9464 37.878 24.9464 39.0751C24.9464 40.2721 23.9725 41.2457 22.7754 41.2457C21.5784 41.2457 20.6045 40.2721 20.6045 39.0751Z" fill="black" fill-opacity="0.8" />
    <path d="M13.7235 30.8357C11.7189 30.8357 10.0881 32.4665 10.0881 34.4711C10.0881 36.4758 11.7189 38.1069 13.7235 38.1069C15.7285 38.1069 17.3593 36.4758 17.3593 34.4711C17.3593 32.4665 15.7285 30.8357 13.7235 30.8357ZM13.7235 36.6421C12.5269 36.6421 11.553 35.6682 11.553 34.4711C11.553 33.2741 12.5269 32.3006 13.7235 32.3006C14.9206 32.3006 15.8945 33.2741 15.8945 34.4711C15.8945 35.6682 14.9206 36.6421 13.7235 36.6421Z" fill="black" fill-opacity="0.8" />
    <path d="M16.1126 15.8813C14.1076 15.8813 12.4768 17.5125 12.4768 19.5171C12.4768 21.5218 14.1076 23.1529 16.1126 23.1529C18.1172 23.1529 19.748 21.5218 19.748 19.5171C19.748 17.5125 18.1172 15.8813 16.1126 15.8813ZM16.1126 21.6881C14.9155 21.6881 13.9417 20.7142 13.9417 19.5171C13.9417 18.3201 14.9155 17.3462 16.1126 17.3462C17.3093 17.3462 18.2832 18.3201 18.2832 19.5171C18.2832 20.7142 17.3096 21.6881 16.1126 21.6881Z" fill="black" fill-opacity="0.8" />
    <path d="M25.8439 9.67941C25.8439 7.67479 24.2128 6.04362 22.2082 6.04362C20.2035 6.04362 18.5728 7.67479 18.5728 9.67941C18.5728 11.684 20.2035 13.3152 22.2082 13.3152C24.2128 13.3152 25.8439 11.684 25.8439 9.67941ZM20.0372 9.67941C20.0372 8.48236 21.0111 7.50847 22.2082 7.50847C23.4052 7.50847 24.3791 8.48236 24.3791 9.67941C24.3791 10.8765 23.4052 11.8504 22.2082 11.8504C21.0111 11.8504 20.0372 10.8765 20.0372 9.67941Z" fill="black" fill-opacity="0.8" />
    <path d="M38.5967 13.2729C38.5967 12.0686 37.6171 11.0889 36.4128 11.0889C35.2085 11.0889 34.2285 12.0686 34.2285 13.2729C34.2285 14.4772 35.2085 15.4568 36.4128 15.4568C37.6171 15.4568 38.5967 14.4772 38.5967 13.2729ZM35.6934 13.2729C35.6934 12.8761 36.0161 12.5538 36.4128 12.5538C36.8095 12.5538 37.1319 12.8761 37.1319 13.2729C37.1319 13.6696 36.8095 13.9919 36.4128 13.9919C36.0161 13.9919 35.6934 13.6696 35.6934 13.2729Z" fill="black" fill-opacity="0.8" />
    <path d="M31.741 18.6279C30.5367 18.6279 29.5571 19.6075 29.5571 20.8118C29.5571 22.0161 30.5367 22.9961 31.741 22.9961C32.9453 22.9961 33.9253 22.0161 33.9253 20.8118C33.9253 19.6075 32.9453 18.6279 31.741 18.6279ZM31.741 21.5313C31.3447 21.5313 31.022 21.2086 31.022 20.8118C31.022 20.4155 31.3447 20.0928 31.741 20.0928C32.1378 20.0928 32.4605 20.4155 32.4605 20.8118C32.4605 21.2086 32.1378 21.5313 31.741 21.5313Z" fill="black" fill-opacity="0.8" />
    <path d="M30.0382 11.1019C31.2425 11.1019 32.2221 10.1223 32.2221 8.91801C32.2221 7.71371 31.2425 6.73372 30.0382 6.73372C28.8339 6.73372 27.8542 7.71371 27.8542 8.91801C27.8542 10.1223 28.8339 11.1019 30.0382 11.1019ZM30.0382 8.19856C30.4345 8.19856 30.7572 8.52129 30.7572 8.91801C30.7572 9.31474 30.4345 9.63708 30.0382 9.63708C29.6414 9.63708 29.3191 9.31436 29.3191 8.91801C29.3191 8.52129 29.6414 8.19856 30.0382 8.19856Z" fill="black" fill-opacity="0.8" />
    <path d="M22.77 16.9495C22.77 18.1538 23.75 19.1338 24.9543 19.1338C26.1586 19.1338 27.1382 18.1538 27.1382 16.9495C27.1382 15.7452 26.1586 14.7655 24.9543 14.7655C23.7496 14.7655 22.77 15.7452 22.77 16.9495ZM25.6734 16.9495C25.6734 17.3462 25.3507 17.6689 24.9539 17.6689C24.5576 17.6689 24.2349 17.3462 24.2349 16.9495C24.2349 16.5531 24.5576 16.2304 24.9539 16.2304C25.3507 16.2304 25.6734 16.5531 25.6734 16.9495Z" fill="black" fill-opacity="0.8" />
    <path d="M8.68782 19.2139C7.48352 19.2139 6.50391 20.1935 6.50391 21.3978C6.50391 22.6021 7.48352 23.5821 8.68782 23.5821C9.89212 23.5821 10.8717 22.6021 10.8717 21.3978C10.8717 20.1935 9.89212 19.2139 8.68782 19.2139ZM8.68782 22.1172C8.29109 22.1172 7.96875 21.7945 7.96875 21.3978C7.96875 21.0014 8.29109 20.6787 8.68782 20.6787C9.08417 20.6787 9.40689 21.0014 9.40689 21.3978C9.40689 21.7945 9.08417 22.1172 8.68782 22.1172Z" fill="black" fill-opacity="0.8" />
    <path d="M17.0246 30.468C18.2289 30.468 19.2085 29.4884 19.2085 28.2841C19.2085 27.0798 18.2285 26.0998 17.0246 26.0998C15.8203 26.0998 14.8403 27.0798 14.8403 28.2841C14.8403 29.4884 15.8203 30.468 17.0246 30.468ZM17.0246 27.5646C17.421 27.5646 17.7437 27.8873 17.7437 28.2841C17.7437 28.6804 17.421 29.0031 17.0246 29.0031C16.6279 29.0031 16.3052 28.6804 16.3052 28.2841C16.3052 27.8873 16.6279 27.5646 17.0246 27.5646Z" fill="black" fill-opacity="0.8" />
    <path d="M13.7208 14.7678C13.9264 14.7678 14.1335 14.7385 14.3365 14.6789C15.4923 14.341 16.158 13.126 15.82 11.9697C15.6564 11.4101 15.2844 10.947 14.7729 10.667C14.261 10.3866 13.6708 10.3226 13.1108 10.4862C11.955 10.8242 11.2893 12.0392 11.6273 13.195C11.7909 13.755 12.1629 14.2181 12.6744 14.4981C13.0006 14.6767 13.3588 14.7678 13.7208 14.7678ZM13.5221 11.8923C13.5888 11.8729 13.6571 11.8629 13.7246 11.8629C13.844 11.8629 13.9619 11.8931 14.0691 11.9518C14.2377 12.0441 14.3601 12.1963 14.4139 12.381C14.5253 12.7617 14.306 13.1618 13.9256 13.2728C13.741 13.3266 13.5468 13.3057 13.3782 13.2133C13.21 13.121 13.0876 12.9688 13.0334 12.7842C12.922 12.4039 13.1413 12.0037 13.5221 11.8923Z" fill="black" fill-opacity="0.8" />
    <path d="M11.3946 29.3549C11.3946 28.1506 10.4146 27.1709 9.21028 27.1709C8.00598 27.1709 7.02637 28.1506 7.02637 29.3549C7.02637 30.5592 8.00598 31.5392 9.21028 31.5392C10.4146 31.5388 11.3946 30.5592 11.3946 29.3549ZM9.21028 30.0739C8.81393 30.0739 8.49121 29.7512 8.49121 29.3549C8.49121 28.9581 8.81393 28.6354 9.21028 28.6354C9.60701 28.6354 9.92973 28.9581 9.92973 29.3549C9.92973 29.7512 9.60701 30.0739 9.21028 30.0739Z" fill="black" fill-opacity="0.8" />
    <path d="M29.6556 42.7105C30.8599 42.7105 31.8395 41.7309 31.8395 40.5266C31.8395 39.3223 30.8599 38.3427 29.6556 38.3427C28.4513 38.3427 27.4717 39.3223 27.4717 40.5266C27.4717 41.7309 28.4513 42.7105 29.6556 42.7105ZM29.6556 39.8075C30.0523 39.8075 30.3747 40.1302 30.3747 40.5266C30.3747 40.9233 30.0523 41.2457 29.6556 41.2457C29.2592 41.2457 28.9365 40.9233 28.9365 40.5266C28.9365 40.1302 29.2592 39.8075 29.6556 39.8075Z" fill="black" fill-opacity="0.8" />
    <path d="M24.9539 34.4421C26.1582 34.4421 27.1382 33.4625 27.1382 32.2582C27.1382 31.0539 26.1582 30.0743 24.9539 30.0743C23.7496 30.0743 22.77 31.0539 22.77 32.2582C22.77 33.4625 23.7496 34.4421 24.9539 34.4421ZM24.9539 31.5388C25.3507 31.5388 25.6734 31.8615 25.6734 32.2582C25.6734 32.6546 25.3507 32.9773 24.9539 32.9773C24.5576 32.9773 24.2349 32.6546 24.2349 32.2582C24.2349 31.8615 24.5576 31.5388 24.9539 31.5388Z" fill="black" fill-opacity="0.8" />
    <path d="M38.8798 16.0767C36.8752 16.0767 35.2444 17.7078 35.2444 19.7124C35.2444 21.7171 36.8752 23.3482 38.8798 23.3482C40.8844 23.3482 42.5156 21.7171 42.5156 19.7124C42.5156 17.7078 40.8844 16.0767 38.8798 16.0767ZM38.8798 21.8834C37.6827 21.8834 36.7092 20.9095 36.7092 19.7124C36.7092 18.5154 37.6827 17.5415 38.8798 17.5415C40.0768 17.5415 41.0507 18.5154 41.0507 19.7124C41.0507 20.9095 40.0768 21.8834 38.8798 21.8834Z" fill="black" fill-opacity="0.8" />
    <path d="M49.9039 23.402C49.4107 15.591 45.2748 8.5022 38.8119 4.19006C38.3267 3.86658 37.7251 3.75214 37.1533 3.87192C36.9725 3.31726 36.5746 2.85225 36.0527 2.59361C32.5856 0.872421 28.8514 0 24.9539 0C21.0568 0 17.3226 0.872421 13.855 2.59361C13.3336 2.85263 12.9357 3.31726 12.7549 3.87192C12.183 3.75214 11.5811 3.86658 11.0958 4.19006C4.63909 8.49838 0.497857 15.5846 0.00423516 23.402C-0.0323859 23.9853 0.170175 24.5644 0.560037 25C0.169793 25.4356 -0.0323859 26.0147 0.00423516 26.598C0.497476 34.409 4.63337 41.4978 11.0962 45.8099C11.5639 46.122 12.1598 46.2528 12.7549 46.1281C12.9357 46.6827 13.3336 47.1478 13.8554 47.4068C17.3226 49.1276 21.0568 50 24.9539 50C28.8514 50 32.5856 49.1276 36.0527 47.4064C37.183 46.8456 37.5996 45.4376 36.9687 44.3447L26.2227 25.7324H34.0847V29.8889C34.0847 31.2366 35.1471 32.431 36.6734 32.431C38.1108 32.431 39.2804 31.2656 39.2804 29.8332V29.1615C39.2804 28.9246 39.473 28.7319 39.7099 28.7319C39.9468 28.7319 40.1394 28.9246 40.1394 29.1615V34.3819C40.1394 35.5705 41.1065 36.5372 42.2951 36.5372C43.4834 36.5372 44.4504 35.5705 44.4504 34.3819V25.7324H47.7097C48.9754 25.7324 49.9833 24.6628 49.9039 23.402ZM12.1621 40.2458C11.3457 39.5599 10.7945 38.4777 10.0075 37.5408C9.22169 36.6055 8.25199 35.8776 7.71603 34.9514C7.18578 34.0355 7.03587 32.8308 6.61511 31.6746C6.20007 30.5347 5.5386 29.5219 5.35244 28.4573C5.20786 27.6329 5.35282 26.7139 5.41691 25.7324H23.6855L14.5493 41.5562C13.6704 41.1228 12.8102 40.7902 12.1621 40.2458ZM5.35244 21.5427C5.5386 20.4781 6.20007 19.4653 6.61511 18.3254C7.03625 17.168 7.18578 15.9649 7.71603 15.0486C8.25161 14.1224 9.22207 13.3942 10.0075 12.4592C10.7953 11.5208 11.3453 10.4404 12.1621 9.75418C12.8102 9.20982 13.6708 8.8768 14.5497 8.44345L18.4037 15.1192C18.6058 15.4694 19.0541 15.5895 19.4043 15.3873C19.7545 15.1852 19.8746 14.7369 19.6724 14.3867L15.8173 7.7095C16.6268 7.16553 17.342 6.58646 18.1458 6.29387C19.1349 5.93376 20.3469 5.99594 21.5641 5.78308C22.7543 5.57442 23.8652 5.09911 24.9539 5.09911C26.043 5.09911 27.1538 5.57442 28.344 5.78308C29.5613 5.99594 30.7736 5.93376 31.7624 6.29387C32.5657 6.58646 33.2806 7.16515 34.0909 7.7095L24.9539 23.5352L21.3814 17.347C21.1789 16.9968 20.731 16.8766 20.3808 17.0788C20.0306 17.2813 19.9105 17.7292 20.1127 18.0794L23.6855 24.2676H5.41729C5.35282 23.2861 5.20786 22.3671 5.35244 21.5427ZM14.5066 3.90549C17.7697 2.28615 21.2849 1.46484 24.9539 1.46484C28.6232 1.46484 32.1385 2.28615 35.4016 3.90549C35.7739 4.09012 35.9108 4.5578 35.6999 4.92287L34.8252 6.43768C34.0188 5.88875 33.2367 5.27191 32.2632 4.91753C31.0433 4.4735 29.7471 4.54178 28.5965 4.33998C27.4811 4.14505 26.2875 3.63426 24.9539 3.63426C23.6206 3.63426 22.4266 4.14505 21.3116 4.33998C20.1615 4.54178 18.8649 4.47311 17.6445 4.91753C16.6714 5.27191 15.8913 5.88722 15.083 6.43768C15.0765 6.42662 14.2086 4.92363 14.2086 4.92363C14.2083 4.92325 14.2083 4.92287 14.2083 4.92287C13.9977 4.55818 14.1339 4.0905 14.5066 3.90549L14.5066 3.90549ZM1.46641 23.494C1.92494 16.2262 5.8289 9.46541 11.9091 5.40848C12.2551 5.17769 12.7297 5.29137 12.941 5.65758L13.8153 7.17201C12.9349 7.59964 12.0079 7.97081 11.2198 8.63266C10.2154 9.47647 9.62757 10.6342 8.88561 11.5173C8.14594 12.3978 7.10682 13.1763 6.44802 14.315C5.79495 15.4438 5.63626 16.7316 5.23876 17.8242C4.84852 18.8961 4.13822 19.9833 3.90934 21.2902C3.73348 22.2946 3.87844 23.2853 3.94863 24.2676H2.19807C1.7754 24.2676 1.43971 23.9128 1.46641 23.494ZM11.9091 44.5911C5.8289 40.5346 1.92494 33.7738 1.46641 26.5057C1.43971 26.0872 1.7754 25.7324 2.19845 25.7324H3.94863C3.87844 26.7162 3.73348 27.7054 3.90934 28.7098C4.13822 30.0167 4.84852 31.1043 5.23876 32.1758C5.63626 33.268 5.79533 34.5562 6.44802 35.685C7.10682 36.8233 8.14633 37.6022 8.886 38.483C9.62795 39.3661 10.2158 40.5239 11.2202 41.3673C12.0076 42.0292 12.9342 42.4 13.8153 42.828L12.941 44.342C12.7308 44.7067 12.257 44.8235 11.9091 44.5911ZM35.4016 46.0945C32.1385 47.7139 28.6232 48.5352 24.9539 48.5352C21.2845 48.5352 17.7697 47.7139 14.5066 46.0945C14.1343 45.9095 13.9973 45.4422 14.2083 45.0771L15.083 43.5623C15.8898 44.1116 16.6714 44.7281 17.6445 45.0825C18.0241 45.2209 18.4449 45.0253 18.5833 44.6445C18.7218 44.2646 18.5257 43.8442 18.1458 43.7061C17.3424 43.4135 16.6272 42.8349 15.8173 42.2901L24.9539 26.4648L34.0909 42.2901C33.2806 42.8349 32.5657 43.4135 31.7624 43.7061C30.7732 44.0662 29.5613 44.0037 28.344 44.2169C27.1538 44.4252 26.043 44.9009 24.9539 44.9009C23.7927 44.9009 22.6525 44.3703 21.2868 44.1727C20.8863 44.1151 20.5151 44.3928 20.4571 44.7929C20.3995 45.1935 20.6772 45.565 21.0774 45.6226C22.3397 45.805 23.5432 46.3657 24.9539 46.3657C26.2875 46.3657 27.4807 45.8553 28.5965 45.66C29.7463 45.4586 31.0429 45.5269 32.2636 45.0825C33.2364 44.7285 34.0172 44.1128 34.8252 43.5623L35.6999 45.0771C35.9105 45.4418 35.7743 45.9095 35.4016 46.0945ZM43.718 24.2676C43.3136 24.2676 42.9856 24.5956 42.9856 25V34.3819C42.9856 34.7626 42.6758 35.0723 42.2951 35.0723C41.9144 35.0723 41.6047 34.7626 41.6047 34.3819V29.1615C41.6047 28.1166 40.7547 27.2671 39.7099 27.2671C38.6654 27.2671 37.8155 28.1166 37.8155 29.1615V29.8332C37.8155 30.4173 37.36 30.9662 36.6269 30.9662C36.0314 30.9662 35.5496 30.4844 35.5496 29.8889L35.55 25.7324H41.0885C41.4929 25.7324 41.821 25.4044 41.821 25C41.821 24.5956 41.4929 24.2676 41.0885 24.2676H26.2227L35.3585 8.44383C36.2362 8.87642 37.0976 9.20944 37.7461 9.75418C38.5628 10.4401 39.1133 11.5219 39.9006 12.4592C40.6865 13.3945 41.6562 14.122 42.1921 15.0486C42.7224 15.9645 42.8719 17.1692 43.293 18.3254C43.7081 19.4653 44.3692 20.4781 44.5557 21.5427C44.7003 22.3671 44.5553 23.2861 44.4909 24.2676H43.718ZM47.7097 24.2676H45.9595C46.0297 23.2838 46.1747 22.2946 45.9988 21.2902C45.7699 19.9833 45.0596 18.8957 44.6694 17.8242C44.2723 16.7324 44.1128 15.4434 43.4601 14.315C42.8013 13.1763 41.7614 12.397 41.0222 11.517C40.281 10.6342 39.6924 9.47609 38.6883 8.63266C37.9006 7.97119 36.9748 7.6004 36.0928 7.17201L36.9671 5.65758C37.1785 5.29137 37.6534 5.17769 37.999 5.40848C44.0793 9.46541 47.9832 16.2262 48.4417 23.494C48.4684 23.9136 48.132 24.2676 47.7097 24.2676Z" fill="black" fill-opacity="0.8" />
</svg>