
<svg width="56" height="37" viewBox="0 0 56 37" fill="none" xmlns="http://www.w3.org/2000/svg">
    <path d="M53.6587 28.0659H45.0275C45.5461 27.8933 46.064 27.7062 46.569 27.5041C49.872 26.1839 51.5468 24.6321 51.5468 22.8915C51.5468 20.2161 49.3794 19.3172 47.467 18.5247C46.6476 18.185 45.8008 17.8334 45.1069 17.3561C44.7335 17.0998 44.2225 17.1942 43.9662 17.5672C43.7094 17.9406 43.8038 18.4512 44.1772 18.7079C45.0129 19.283 45.9413 19.668 46.8386 20.0401C48.7979 20.8523 49.9062 21.3851 49.9062 22.8915C49.9062 23.8524 48.4681 24.9782 45.9601 25.981C42.9553 27.1819 39.4681 27.8326 38.0407 28.0659H35.3542C37.1943 26.6308 38.4983 24.665 39.3327 22.0631C40.3487 18.8964 41.7971 16.5704 44.0298 14.5218C44.6494 13.9531 44.9249 13.1503 44.8284 12.3885L49.5067 8.9082C49.634 8.81378 49.8092 8.81036 49.9429 8.90008C50.9564 9.58068 51.9988 9.76696 52.9572 9.43841C53.713 9.1795 54.3051 8.63775 54.6251 7.91272C54.9571 7.15991 54.9537 6.28064 54.6149 5.50006C54.171 4.47723 53.2259 3.78125 52.1479 3.65606C52.3513 2.59008 51.9698 1.47967 51.1268 0.749936C50.4838 0.193234 49.646 -0.0737946 48.8278 0.017636C48.0408 0.105649 47.3466 0.508969 46.8727 1.1524C46.2725 1.96844 46.1379 3.01861 46.4839 4.18927C46.5297 4.3435 46.4741 4.5097 46.3472 4.60199L41.624 8.02423C40.9259 7.70422 40.0774 7.72644 39.3494 8.14727C36.7261 9.664 34.0733 10.3493 30.7476 10.3702C27.8915 10.3882 25.5433 11.1013 23.569 12.5513C21.3653 14.1689 19.8883 16.5038 19.4098 19.1249C18.9283 21.764 19.514 24.3766 21.0594 26.4813C21.4905 27.0683 21.9878 27.5985 22.5389 28.0659H12.1487C5.83661 26.7944 2.76813 23.6469 2.76813 18.4452C2.76813 14.4876 4.5365 10.4083 7.62036 7.25305C10.9533 3.84234 15.4052 1.96417 20.1549 1.96417C25.5963 1.96417 31.2531 3.94915 35.675 7.41027C36.0318 7.68969 36.5475 7.62646 36.8265 7.26971C37.1059 6.91296 37.0431 6.3977 36.6863 6.11828C31.9815 2.43585 25.9561 0.323544 20.1549 0.323544C14.9596 0.323544 10.0916 2.37732 6.44714 6.10632C3.06635 9.5653 1.1275 14.0629 1.1275 18.4452C1.1275 22.8881 3.08984 26.1078 6.96881 28.0659H2.34131C1.05017 28.0659 0 29.1161 0 30.4072C0 31.6984 1.05017 32.749 2.34131 32.749H5.3158C5.36194 32.749 5.40295 32.7763 5.42047 32.819L5.94128 34.0939C6.55695 35.6013 8.00659 36.5749 9.63483 36.5749H46.3652C47.9934 36.5749 49.4431 35.6013 50.0587 34.0939L50.5795 32.8195C50.597 32.7767 50.6381 32.749 50.6842 32.749H53.6587C54.9494 32.749 56 31.6984 56 30.4072C56 29.1165 54.9498 28.0659 53.6587 28.0659ZM47.3111 5.92944C47.999 5.42871 48.2989 4.5426 48.0571 3.724C47.9212 3.26428 47.8345 2.61316 48.1942 2.12439C48.4493 1.77746 48.7787 1.67407 49.0103 1.64801C49.3755 1.60742 49.7549 1.73217 50.0532 1.99023C50.5859 2.45166 50.6317 3.07544 50.4966 3.50525C50.3676 3.91626 50.4445 4.36871 50.7026 4.71734C50.9576 5.06726 51.3661 5.27575 51.7963 5.27575H51.7968C52.2475 5.27575 52.829 5.50647 53.1097 6.15332C53.2665 6.51477 53.272 6.9151 53.1238 7.25048C53.0298 7.46325 52.832 7.74652 52.4248 7.88623C51.851 8.08276 51.2554 7.80548 50.8572 7.53802C50.1493 7.0625 49.2141 7.083 48.5287 7.59057L44.0931 10.8902L42.8327 9.17395L47.3111 5.92944ZM22.3821 25.5106C21.1064 23.7729 20.624 21.6098 21.0239 19.4197C21.4268 17.2122 22.6757 15.2421 24.5397 13.8737C26.2256 12.6355 28.2598 12.0262 30.7579 12.0109C34.3843 11.9878 37.287 11.2346 40.1705 9.56744C40.488 9.38415 40.8631 9.41107 41.1019 9.61743C41.1053 9.62042 41.1088 9.62298 41.1122 9.62597C41.1451 9.65588 41.1758 9.68921 41.2028 9.72595L43.0784 12.2809C43.1044 12.3163 43.1279 12.3561 43.1472 12.3992C43.148 12.4009 43.1489 12.4022 43.1497 12.4035C43.2787 12.6945 43.1924 13.0636 42.9203 13.3131C40.4666 15.5647 38.8781 18.1089 37.7707 21.5619C37.0076 23.9409 35.8169 25.699 34.131 26.9367C33.5021 27.3986 32.8163 27.7784 32.0922 28.0659H25.648C24.3385 27.5216 23.2119 26.6406 22.3821 25.5106ZM53.6587 31.1083H17.494C17.0411 31.1083 16.6737 31.4753 16.6737 31.9286C16.6737 32.3815 17.0411 32.749 17.494 32.749H48.8359L48.5403 33.4736C48.1776 34.361 47.3239 34.9343 46.3652 34.9343H9.63483C8.67609 34.9343 7.82245 34.361 7.45972 33.4736L7.16406 32.749H13.6774C14.1303 32.749 14.4977 32.3815 14.4977 31.9286C14.4977 31.4753 14.1303 31.1083 13.6774 31.1083H2.34131C1.95465 31.1083 1.64062 30.7939 1.64062 30.4072C1.64062 30.021 1.95465 29.7065 2.34131 29.7065H53.6587C54.0449 29.7065 54.3594 30.021 54.3594 30.4072C54.3594 30.7939 54.0449 31.1083 53.6587 31.1083Z" fill="black" fill-opacity="0.8" />
</svg>