
<svg width="45" height="45" viewBox="0 0 45 45" fill="none" xmlns="http://www.w3.org/2000/svg">
    <path d="M44.9873 8.18698C44.9885 8.16114 44.9884 8.13521 44.9868 8.10937C44.978 8.08203 44.9675 8.05532 44.9555 8.0293C44.9125 7.90107 44.8386 7.78532 44.7403 7.69242C44.7035 7.66209 44.6639 7.63538 44.622 7.6127C44.5849 7.58862 44.5455 7.56805 44.5044 7.55118C44.4533 7.53501 44.4005 7.52437 44.347 7.51945C44.3152 7.51066 44.2828 7.50416 44.25 7.49985C44.242 7.49985 44.2354 7.50416 44.2275 7.50433C44.2191 7.50451 44.2116 7.50082 44.2031 7.50126L17.9881 9.13795C17.8893 6.84515 16.408 4.84205 14.2446 4.076C14.3464 3.573 14.5609 3.09971 14.8718 2.69155C15.6725 1.82952 16.8287 1.38902 18 1.49993C18.4142 1.49993 18.75 1.16419 18.75 0.749967C18.75 0.335741 18.4143 0 18.0001 0C16.0746 0 14.6273 0.591062 13.6986 1.75631C13.2405 2.34816 12.9241 3.03705 12.7734 3.77014C12.6413 3.76082 12.5095 3.74992 12.375 3.74992C9.59867 3.75476 7.24049 5.78327 6.8209 8.52781C6.07849 7.86653 5.11925 7.50082 4.12504 7.49994C2.28022 7.50503 0.663835 8.73602 0.16831 10.513C0.06249 10.641 0.00316405 10.8011 0 10.9672V36.0987C0.00017578 41.0067 4.37386 44.9998 9.75019 44.9998C9.79493 44.9951 9.83914 44.9862 9.8822 44.9732C10.0115 45.0117 10.1497 45.0087 10.2772 44.9646L44.4771 34.097C44.4885 34.0934 44.4961 34.0844 44.5073 34.0803C44.5562 34.0598 44.6028 34.034 44.646 34.0032C44.8129 33.9153 44.9297 33.7552 44.9623 33.5695C44.9781 33.5196 44.9885 33.4682 44.9932 33.416C44.9937 33.4042 45.0001 33.3942 45.0001 33.3821V8.24999C45 8.22758 44.9893 8.20877 44.9873 8.18698ZM8.64427 7.60813C9.32559 6.16524 10.7796 5.24626 12.3752 5.24995C12.4554 5.24995 12.5338 5.25742 12.6128 5.26199C12.6067 5.81781 12.6592 6.37275 12.7692 6.91766C12.8474 7.25806 13.1501 7.49959 13.4994 7.49994C13.5561 7.50011 13.6126 7.4937 13.6679 7.48086C14.0716 7.38823 14.3237 6.98595 14.2312 6.58227C14.2312 6.58227 14.2312 6.58227 14.2312 6.58219C14.1724 6.27246 14.1363 5.95887 14.123 5.64396C16.1783 6.61444 17.0576 9.06737 16.0872 11.1227C15.1167 13.178 12.6638 14.0573 10.6084 13.0869C8.55313 12.1164 7.6737 9.66344 8.64427 7.60813ZM9.00014 43.4698C4.80118 43.1285 1.5002 39.9527 1.5002 36.0987V15.8378C3.19903 18.3683 5.96168 19.983 9.00014 20.2213V43.4698ZM9.64771 18.7449C5.34346 18.692 1.71685 15.3441 1.51936 11.3102C1.52876 11.2439 1.5379 11.1766 1.55337 11.1042C1.80122 9.88044 2.87665 9.00058 4.1253 8.99996C5.25417 9.00242 6.25576 9.72426 6.61515 10.7944C6.68968 11.0122 6.86177 11.1827 7.08026 11.2551C8.11447 14.1801 11.324 15.7128 14.2489 14.6786C16.0584 14.0388 17.4161 12.5194 17.849 10.6497L38.4061 9.3662L21.5176 14.8718C21.5069 14.8753 21.4999 14.8839 21.4894 14.8878C21.4412 14.9086 21.3953 14.9346 21.3526 14.9653C21.1856 15.0525 21.0691 15.2128 21.0378 15.3986C21.0217 15.4492 21.0111 15.5014 21.0065 15.5543C21.006 15.5652 21.0002 15.5743 21.0002 15.5853V19.5001C21.0002 19.9143 20.6645 20.2501 20.2503 20.2501C19.836 20.2501 19.5003 19.9143 19.5003 19.5001V16.5673C19.5003 16.1531 19.1645 15.8173 18.7503 15.8173C18.3361 15.8173 18.0004 16.1532 18.0004 16.5673V35.2499C18.0004 35.6641 17.6646 35.9998 17.2504 35.9998C16.8362 35.9998 16.5004 35.6641 16.5004 35.2499V17.5422C16.4817 17.4657 16.4693 17.3878 16.4634 17.3093C16.46 17.2988 16.4516 17.2919 16.4478 17.2816C16.4273 17.234 16.4018 17.1888 16.3717 17.1467C16.3336 17.0642 16.2705 16.9959 16.1914 16.9516C16.125 16.887 16.0397 16.8451 15.948 16.8321C15.8935 16.8141 15.8369 16.8027 15.7795 16.7981C15.7694 16.7977 15.7608 16.7922 15.7505 16.7922C15.7114 16.7968 15.6729 16.8045 15.6351 16.8155C15.5958 16.8169 15.5565 16.8217 15.5179 16.8296L9.64771 18.7449ZM10.5002 31.9666V29.0437L15.0001 27.5754V30.4983L10.5002 31.9666ZM15.0001 32.0754V34.9998L10.5002 36.4663V33.5437L15.0001 32.0754ZM10.5002 27.4666V20.0437L15.0001 18.5754V25.9983L10.5002 27.4666ZM43.5 32.8335L10.5002 43.3198V38.0445L15.3599 36.4608C16.0266 37.5069 17.4151 37.8145 18.4612 37.1478C19.1094 36.7346 19.5014 36.0186 19.5001 35.2498V35.1118L43.5 27.2838V32.8335ZM43.5 25.7052L19.5001 33.5334V30.6119L43.5 22.7839V25.7052ZM43.5 21.2052L19.5001 29.0334V26.1119L43.5 18.2839V21.2052ZM43.5 16.7052L19.5001 24.5334V21.6117C19.7403 21.7006 19.9941 21.7474 20.2501 21.7499C21.4921 21.7486 22.4988 20.742 22.5001 19.4999V16.1299L43.5 9.28358V16.7052H43.5Z" fill="black" fill-opacity="0.8" />
</svg>